<?xml version="1.0" ?><svg enable-background="new 0 0 512 512" id="Layer_1" version="1.1" viewBox="0 0 512 512" xml:space="preserve" xmlns="http://www.w3.org/2000/svg" xmlns:xlink="http://www.w3.org/1999/xlink"><g><g><linearGradient gradientUnits="userSpaceOnUse" id="SVGID_1_" x1="0.0000038" x2="512" y1="256" y2="256"><stop offset="0" style="stop-color:#A364AB"/><stop offset="1" style="stop-color:#8C3D96"/></linearGradient><circle cx="256" cy="256" fill="url(#SVGID_1_)" r="256"/><linearGradient gradientUnits="userSpaceOnUse" id="SVGID_2_" x1="42.6666679" x2="469.3333435" y1="256.0005188" y2="256.0005188"><stop offset="0" style="stop-color:#8C3D96"/><stop offset="1" style="stop-color:#A364AB"/></linearGradient><path d="M256,469.3338623c-117.6314697,0-213.3333282-95.7023926-213.3333282-213.3333435    c0-117.6314545,95.7018585-213.333313,213.3333282-213.333313c117.6357422,0,213.3333435,95.7018661,213.3333435,213.333313    C469.3333435,373.6314697,373.6357422,469.3338623,256,469.3338623z" fill="url(#SVGID_2_)"/></g><g><path d="M355.5942383,167.4752045v-8.7690735c0-8.0986633-6.5995789-14.6986694-14.6986694-14.6986694    c-8.0497131,0-14.6491699,6.6000061-14.6491699,14.6986694v8.7690735H201.7573395v-8.7690735    c0-8.0986633-6.599472-14.6986694-14.6986694-14.6986694c-8.0990906,0-14.6484375,6.6000061-14.6484375,14.6986694v8.7690735    h-28.3995667v49.5866547h239.978653v-49.5866547H355.5942383z" opacity="0.3"/><path d="M144.0106659,383.9920044h239.978653V227.0608063h-239.978653V383.9920044z M312.1119995,247.8405304    h46.2277222v43.0554657h-46.2277222V247.8405304z M312.1119995,316.1477356h46.2277222v43.0538635h-46.2277222V316.1477356z     M240.8858643,247.8405304h46.228363v43.0554657h-46.228363V247.8405304z M240.8858643,316.1477356h46.228363v43.0538635    h-46.228363V316.1477356z M169.659729,247.8405304h46.2282715v43.0554657H169.659729V247.8405304z M169.659729,316.1477356    h46.2282715v43.0538635H169.659729V316.1477356z" opacity="0.3"/></g><g><path d="M347.5942383,159.4752045v-8.7690735c0-8.0986633-6.5995789-14.6986694-14.6986694-14.6986694    c-8.0497131,0-14.6491699,6.6000061-14.6491699,14.6986694v8.7690735H193.7573395v-8.7690735    c0-8.0986633-6.599472-14.6986694-14.6986694-14.6986694c-8.0990906,0-14.6484375,6.6000061-14.6484375,14.6986694v8.7690735    h-28.3995667v49.5866547h239.978653v-49.5866547H347.5942383z" fill="#FFFFFF"/><path d="M136.0106659,375.9920044h239.978653V219.0608063h-239.978653V375.9920044z M304.1119995,239.8405304    h46.2277222v43.0554657h-46.2277222V239.8405304z M304.1119995,308.1477356h46.2277222v43.0538635h-46.2277222V308.1477356z     M232.8858643,239.8405304h46.228363v43.0554657h-46.228363V239.8405304z M232.8858643,308.1477356h46.228363v43.0538635    h-46.228363V308.1477356z M161.659729,239.8405304h46.2282715v43.0554657H161.659729V239.8405304z M161.659729,308.1477356    h46.2282715v43.0538635H161.659729V308.1477356z" fill="#FFFFFF"/></g></g></svg>