<?xml version="1.0" encoding="UTF-8"?>
<!DOCTYPE svg PUBLIC "-//W3C//DTD SVG 1.1//EN" "http://www.w3.org/Graphics/SVG/1.1/DTD/svg11.dtd">
<svg xmlns="http://www.w3.org/2000/svg" version="1.1" width="512px" height="512px" style="shape-rendering:geometricPrecision; text-rendering:geometricPrecision; image-rendering:optimizeQuality; fill-rule:evenodd; clip-rule:evenodd" xmlns:xlink="http://www.w3.org/1999/xlink">
<g><path style="opacity:0.977" fill="#5f266c" d="M 250.5,6.5 C 261.769,5.7567 271.769,8.92336 280.5,16C 291.085,26.4276 299.085,38.5943 304.5,52.5C 316.503,52.1208 328.503,52.6208 340.5,54C 365.583,58.4063 377.083,73.2396 375,98.5C 371.746,114.175 364.912,128.008 354.5,140C 366.682,153.701 373.682,169.701 375.5,188C 373.264,210.834 360.597,223.501 337.5,226C 326.473,226.74 315.473,226.574 304.5,225.5C 299.428,241.305 290.595,254.639 278,265.5C 277.5,292.165 277.333,318.831 277.5,345.5C 296.208,345.081 314.875,345.581 333.5,347C 341.12,350.298 345.287,356.131 346,364.5C 346.5,391.165 346.667,417.831 346.5,444.5C 350.514,444.334 354.514,444.501 358.5,445C 359.667,446.167 360.833,447.333 362,448.5C 362.667,465.5 362.667,482.5 362,499.5C 361.535,500.931 360.701,502.097 359.5,503C 324.892,504.157 290.225,504.657 255.5,504.5C 220.775,504.657 186.108,504.157 151.5,503C 150.299,502.097 149.465,500.931 149,499.5C 148.333,482.5 148.333,465.5 149,448.5C 150.167,447.333 151.333,446.167 152.5,445C 156.486,444.501 160.486,444.334 164.5,444.5C 164.333,417.831 164.5,391.165 165,364.5C 165.833,353 172,346.833 183.5,346C 200.163,345.5 216.83,345.333 233.5,345.5C 233.667,318.831 233.5,292.165 233,265.5C 220.405,254.639 211.572,241.305 206.5,225.5C 192.081,227.192 177.748,226.692 163.5,224C 140.753,216.012 131.92,200.178 137,176.5C 140.764,162.802 147.264,150.635 156.5,140C 146.088,128.008 139.254,114.175 136,98.5C 133.607,78.7793 141.44,64.946 159.5,57C 165.668,54.8746 172.001,53.5413 178.5,53C 187.865,52.9356 197.199,52.7689 206.5,52.5C 212.55,35.967 222.55,22.467 236.5,12C 241.017,9.44545 245.684,7.61212 250.5,6.5 Z M 252.5,23.5 C 262.318,24.1314 270.151,28.4648 276,36.5C 281.027,42.8907 284.693,49.8907 287,57.5C 276.275,60.4641 265.775,64.1307 255.5,68.5C 244.785,64.2666 234.118,60.2666 223.5,56.5C 228.078,46.0942 234.411,36.9275 242.5,29C 245.767,26.8703 249.1,25.037 252.5,23.5 Z M 179.5,69.5 C 186.636,69.0492 193.636,69.7159 200.5,71.5C 197.423,82.3901 194.923,93.3901 193,104.5C 184.37,111.461 176.037,118.795 168,126.5C 160.886,117.605 155.886,107.605 153,96.5C 151.551,88.1759 154.051,81.3426 160.5,76C 166.553,72.7053 172.886,70.5386 179.5,69.5 Z M 315.5,69.5 C 324.618,69.1322 333.618,69.9655 342.5,72C 356.25,76.8963 361.083,86.3963 357,100.5C 353.889,110.06 349.222,118.726 343,126.5C 334.281,118.444 325.615,110.444 317,102.5C 315.791,91.957 313.625,81.6237 310.5,71.5C 312.291,70.8302 313.958,70.1635 315.5,69.5 Z M 217.5,73.5 C 222.906,75.0246 228.239,76.8579 233.5,79C 226.845,81.9925 220.512,85.4925 214.5,89.5C 214.167,89.1667 213.833,88.8333 213.5,88.5C 214.836,83.4925 216.17,78.4925 217.5,73.5 Z M 292.5,73.5 C 294.732,78.1966 296.399,83.1966 297.5,88.5C 297.167,88.8333 296.833,89.1667 296.5,89.5C 290.488,85.4925 284.155,81.9925 277.5,79C 282.571,77.0353 287.571,75.202 292.5,73.5 Z M 253.5,87.5 C 270.55,93.9418 286.384,102.608 301,113.5C 303.165,131.2 302.999,148.867 300.5,166.5C 286.317,176.43 271.317,185.096 255.5,192.5C 239.683,185.096 224.683,176.43 210.5,166.5C 208.001,148.867 207.835,131.2 210,113.5C 223.819,103.675 238.319,95.0081 253.5,87.5 Z M 190.5,128.5 C 191.819,135.677 191.819,143.01 190.5,150.5C 186.682,147.182 183.015,143.682 179.5,140C 183.37,136.298 187.037,132.464 190.5,128.5 Z M 319.5,128.5 C 323.631,132.13 327.631,135.963 331.5,140C 327.985,143.682 324.318,147.182 320.5,150.5C 319.503,143.197 319.169,135.863 319.5,128.5 Z M 167.5,153.5 C 175.813,160.975 184.313,168.308 193,175.5C 195.178,186.555 197.678,197.555 200.5,208.5C 151.214,212.918 140.214,194.585 167.5,153.5 Z M 341.5,153.5 C 343.017,153.511 344.184,154.177 345,155.5C 352.227,165.175 356.727,176.008 358.5,188C 356.794,200.703 349.46,207.703 336.5,209C 327.814,209.832 319.147,209.665 310.5,208.5C 313.322,197.555 315.822,186.555 318,175.5C 326.634,169.034 334.467,161.7 341.5,153.5 Z M 213.5,189.5 C 219.976,193.574 226.643,197.408 233.5,201C 228.3,203.184 222.966,204.517 217.5,205C 215.779,199.95 214.446,194.783 213.5,189.5 Z M 296.5,189.5 C 297.097,189.735 297.43,190.235 297.5,191C 296.316,195.74 294.983,200.407 293.5,205C 288.034,204.517 282.7,203.184 277.5,201C 284.23,197.643 290.563,193.81 296.5,189.5 Z M 253.5,211.5 C 264.798,215.154 276.131,218.821 287.5,222.5C 283.129,232.744 277.129,241.911 269.5,250C 260.167,257.333 250.833,257.333 241.5,250C 233.871,241.911 227.871,232.744 223.5,222.5C 233.889,219.596 243.889,215.929 253.5,211.5 Z"/></g>
<g><path style="opacity:0.973" fill="#5f266c" d="M 248.5,113.5 C 268.316,111.564 279.65,120.397 282.5,140C 279.932,158.619 269.265,167.286 250.5,166C 233.296,160.77 226.463,149.27 230,131.5C 233.441,122.557 239.608,116.557 248.5,113.5 Z"/></g>
<g><path style="opacity:1" fill="#f4ce37" d="M 252.5,129.5 C 261.854,129.681 266.02,134.348 265,143.5C 262.081,149.025 257.581,150.858 251.5,149C 245.975,146.081 244.142,141.581 246,135.5C 248.063,133.266 250.229,131.266 252.5,129.5 Z"/></g>
<g><path style="opacity:1" fill="#f3cc37" d="M 249.5,272.5 C 253.5,272.5 257.5,272.5 261.5,272.5C 261.5,297.167 261.5,321.833 261.5,346.5C 257.5,346.5 253.5,346.5 249.5,346.5C 249.5,321.833 249.5,297.167 249.5,272.5 Z"/></g>
<g><path style="opacity:1" fill="#c88484" d="M 200.5,362.5 C 200.5,369.167 200.5,375.833 200.5,382.5C 196.5,386.5 196.5,390.5 200.5,394.5C 200.5,400.5 200.5,406.5 200.5,412.5C 196.5,416.5 196.5,420.5 200.5,424.5C 200.5,431.167 200.5,437.833 200.5,444.5C 194.167,444.5 187.833,444.5 181.5,444.5C 181.333,417.498 181.5,390.498 182,363.5C 188.076,362.524 194.242,362.19 200.5,362.5 Z"/></g>
<g><path style="opacity:1" fill="#b66b6b" d="M 200.5,362.5 C 237.5,362.5 274.5,362.5 311.5,362.5C 311.824,369.354 311.491,376.021 310.5,382.5C 309.527,382.013 308.527,381.513 307.5,381C 272.5,380.333 237.5,380.333 202.5,381C 201.956,381.717 201.289,382.217 200.5,382.5C 200.5,375.833 200.5,369.167 200.5,362.5 Z"/></g>
<g><path style="opacity:1" fill="#955859" d="M 311.5,362.5 C 317.425,362.192 323.259,362.525 329,363.5C 329.5,390.498 329.667,417.498 329.5,444.5C 323.5,444.5 317.5,444.5 311.5,444.5C 311.824,437.646 311.491,430.979 310.5,424.5C 314.5,420.5 314.5,416.5 310.5,412.5C 311.833,406.5 311.833,400.5 310.5,394.5C 314.5,390.5 314.5,386.5 310.5,382.5C 311.491,376.021 311.824,369.354 311.5,362.5 Z"/></g>
<g><path style="opacity:1" fill="#5f266d" d="M 310.5,382.5 C 314.5,386.5 314.5,390.5 310.5,394.5C 309.527,394.987 308.527,395.487 307.5,396C 272.5,396.667 237.5,396.667 202.5,396C 201.956,395.283 201.289,394.783 200.5,394.5C 196.5,390.5 196.5,386.5 200.5,382.5C 201.289,382.217 201.956,381.717 202.5,381C 237.5,380.333 272.5,380.333 307.5,381C 308.527,381.513 309.527,382.013 310.5,382.5 Z"/></g>
<g><path style="opacity:1" fill="#b66b6b" d="M 200.5,394.5 C 201.289,394.783 201.956,395.283 202.5,396C 237.5,396.667 272.5,396.667 307.5,396C 308.527,395.487 309.527,394.987 310.5,394.5C 311.833,400.5 311.833,406.5 310.5,412.5C 309.527,412.013 308.527,411.513 307.5,411C 299.833,410.333 292.167,410.333 284.5,411C 277.833,416 277.833,421 284.5,426C 292.167,426.667 299.833,426.667 307.5,426C 308.527,425.487 309.527,424.987 310.5,424.5C 311.491,430.979 311.824,437.646 311.5,444.5C 274.5,444.5 237.5,444.5 200.5,444.5C 200.5,437.833 200.5,431.167 200.5,424.5C 201.289,424.783 201.956,425.283 202.5,426C 221.833,426.667 241.167,426.667 260.5,426C 265.069,423.459 266.569,419.625 265,414.5C 263.786,412.951 262.286,411.785 260.5,411C 241.167,410.333 221.833,410.333 202.5,411C 201.956,411.717 201.289,412.217 200.5,412.5C 200.5,406.5 200.5,400.5 200.5,394.5 Z"/></g>
<g><path style="opacity:1" fill="#5f266d" d="M 200.5,424.5 C 196.5,420.5 196.5,416.5 200.5,412.5C 201.289,412.217 201.956,411.717 202.5,411C 221.833,410.333 241.167,410.333 260.5,411C 262.286,411.785 263.786,412.951 265,414.5C 266.569,419.625 265.069,423.459 260.5,426C 241.167,426.667 221.833,426.667 202.5,426C 201.956,425.283 201.289,424.783 200.5,424.5 Z"/></g>
<g><path style="opacity:1" fill="#60276c" d="M 310.5,412.5 C 314.5,416.5 314.5,420.5 310.5,424.5C 309.527,424.987 308.527,425.487 307.5,426C 299.833,426.667 292.167,426.667 284.5,426C 277.833,421 277.833,416 284.5,411C 292.167,410.333 299.833,410.333 307.5,411C 308.527,411.513 309.527,412.013 310.5,412.5 Z"/></g>
<g><path style="opacity:1" fill="#f6de7c" d="M 176.5,460.5 C 176.5,469.5 176.5,478.5 176.5,487.5C 172.5,487.5 168.5,487.5 164.5,487.5C 164.5,478.5 164.5,469.5 164.5,460.5C 168.5,460.5 172.5,460.5 176.5,460.5 Z"/></g>
<g><path style="opacity:1" fill="#f8d235" d="M 176.5,460.5 C 228.833,460.5 281.167,460.5 333.5,460.5C 333.5,469.5 333.5,478.5 333.5,487.5C 281.167,487.5 228.833,487.5 176.5,487.5C 176.5,478.5 176.5,469.5 176.5,460.5 Z"/></g>
<g><path style="opacity:1" fill="#efc004" d="M 333.5,460.5 C 337.833,460.5 342.167,460.5 346.5,460.5C 346.5,469.5 346.5,478.5 346.5,487.5C 342.167,487.5 337.833,487.5 333.5,487.5C 333.5,478.5 333.5,469.5 333.5,460.5 Z"/></g>
</svg>
